# xmcd CD database file
#
# Track frame offsets:
#	150
#	18897
#	44279
#	69064
#	89201
#	111371
#	134905
#	158730
#	183834
#	206789
#	229321
#	250788
#	272012
#	298069
#
# Disc length: 4268 seconds
#
# Revision: 3
# Processed by: cddbd v1.4PL0 Copyright (c) Steve Scherf et al.
# Submitted via: CDex 1.50beta10
#
DISCID=cf10aa0e
DTITLE=Gilberto Santa Rosa - Solo Hit´s
DYEAR=2000
DGENRE=Salsa
TTITLE0=Que Alguien me Diga (Balada)
TTITLE1=Caballo Viejo
TTITLE2=Yo no Te Pido
TTITLE3=Que se lo Lleve el Río
TTITLE4=Te Propongo
TTITLE5=Vivir sin Ella
TTITLE6=Perdóname
TTITLE7=Conciencia
TTITLE8=Sin Voluntad
TTITLE9=Si los Hombres han Llegado a la Luna
TTITLE10=Déjate Querer
TTITLE11=Mal Herido
TTITLE12=Me Volvieron a hablar de Ella
TTITLE13=Que Alguien me Diga (Salsa)
EXTD=YEAR: 2000
EXTT0=
EXTT1=
EXTT2=
EXTT3=
EXTT4=
EXTT5=
EXTT6=
EXTT7=
EXTT8=
EXTT9=
EXTT10=
EXTT11=
EXTT12=
EXTT13=
PLAYORDER=
